<svg width="107.45" height="122.88" xmlns="http://www.w3.org/2000/svg">
 <style type="text/css">
  <![CDATA[
	.st0{fill-rule:evenodd;clip-rule:evenodd;}
]]>
 </style>

 <g>
  <title>background</title>
  <rect fill="none" id="canvas_background" height="50" width="50" y="-1" x="-1"/>
 </g>
 <g>
  <title>Layer 1</title>
  <g id="svg_1" >
   <path width="50" height="50" fill="#23d997" id="svg_2" d="m55.59,102.9c1.79,0.46 3.39,1.39 4.66,2.66l0.01,0.01c0.13,0.13 0.26,0.26 0.38,0.4l26.84,-16.62c-0.21,-0.81 -0.32,-1.66 -0.32,-2.54c0,-2.79 1.14,-5.33 2.97,-7.16l0.01,-0.01c1.23,-1.23 2.78,-2.15 4.51,-2.62l0,-31.54c-2.08,-0.37 -3.94,-1.38 -5.38,-2.81l-0.01,-0.01l-0.01,0.01c-0.2,-0.2 -0.4,-0.41 -0.58,-0.63l-26.31,15.68c0.44,1.12 0.68,2.33 0.68,3.6c0,2.75 -1.11,5.23 -2.92,7.04c-1.23,1.23 -2.79,2.15 -4.53,2.6l0,31.94l0,0zm-2.51,-48.35c3.74,0 6.78,3.04 6.78,6.78s-3.04,6.78 -6.78,6.78s-6.78,-3.04 -6.78,-6.78s3.04,-6.78 6.78,-6.78l0,0zm9.79,55.47c0.24,0.86 0.37,1.77 0.37,2.71c0,2.8 -1.14,5.34 -2.97,7.17s-4.37,2.97 -7.17,2.97c-2.79,0 -5.33,-1.14 -7.16,-2.97l-0.01,-0.01l-0.01,0.01c-1.84,-1.84 -2.97,-4.37 -2.97,-7.17c0,-1 0.15,-1.96 0.42,-2.87l-25.85,-16.03c-0.06,0.07 -0.13,0.13 -0.19,0.2c-1.85,1.83 -4.38,2.97 -7.18,2.97c-2.79,0 -5.33,-1.14 -7.16,-2.97l-0.01,-0.01l-0.01,0.01c-1.83,-1.84 -2.97,-4.37 -2.97,-7.18c0,-2.79 1.14,-5.33 2.97,-7.16l0.01,-0.01c1.02,-1.02 2.27,-1.83 3.65,-2.34l0,-32.33c-1.38,-0.51 -2.62,-1.32 -3.65,-2.34l-0.01,-0.01l-0.01,0.01c-1.82,-1.84 -2.96,-4.37 -2.96,-7.18c0,-2.79 1.14,-5.33 2.97,-7.16l0.01,-0.01c1.84,-1.84 4.37,-2.97 7.16,-2.97c2.38,0 4.58,0.83 6.31,2.21l26.84,-14.76c-0.23,-0.85 -0.35,-1.74 -0.35,-2.65c0,-2.79 1.14,-5.33 2.97,-7.16l0.01,-0.01c1.84,-1.84 4.37,-2.98 7.17,-2.98c2.79,0 5.33,1.14 7.16,2.97l0.01,0.01c1.84,1.84 2.97,4.37 2.97,7.16c0,0.96 -0.13,1.89 -0.38,2.77l26.88,14.97c1.79,-1.58 4.13,-2.54 6.7,-2.54c2.79,0 5.33,1.14 7.16,2.97l0.01,0.01c1.84,1.84 2.97,4.37 2.97,7.16c0,2.8 -1.14,5.34 -2.97,7.17c-1.13,1.13 -2.52,1.99 -4.07,2.49l0,31.76c1.9,0.43 3.59,1.39 4.92,2.72l0.01,0.01c1.84,1.84 2.97,4.37 2.97,7.16c0,2.8 -1.14,5.34 -2.97,7.17s-4.37,2.97 -7.17,2.97c-2.79,0 -5.33,-1.14 -7.16,-2.97l-0.01,-0.01l-0.01,0.01c-0.11,-0.11 -0.21,-0.21 -0.31,-0.33l-26.93,16.39l0,0zm-17.22,-4.17c0.09,-0.09 0.18,-0.19 0.27,-0.28l0.01,-0.01c1.3,-1.3 2.95,-2.25 4.79,-2.69l0,-31.88c-1.79,-0.44 -3.39,-1.37 -4.65,-2.63l-0.01,-0.01l-0.01,0.01c-1.8,-1.8 -2.92,-4.29 -2.92,-7.04c0,-1.33 0.26,-2.59 0.73,-3.75l-25.82,-15.7c-0.23,0.28 -0.47,0.55 -0.72,0.8c-1.53,1.53 -3.55,2.58 -5.81,2.88l0,31.25c2.25,0.3 4.26,1.35 5.8,2.88l0.01,0.01c1.84,1.84 2.97,4.37 2.97,7.16c0,0.95 -0.13,1.86 -0.37,2.73l25.73,16.27l0,0zm0.63,-94.53c0.02,0.1 0.04,0.2 0.06,0.29l0.01,0.03l0.03,0.12l0.01,0.02c0.02,0.1 0.05,0.19 0.08,0.29l0.02,0.07l0.02,0.07l0.02,0.07l0.04,0.13l0.01,0.02l0.03,0.07l0.03,0.07l0.03,0.07l0.03,0.07l0.03,0.07l0.03,0.07l0,0l0.03,0.07l0.05,0.12l0.02,0.03l0.03,0.06l0.03,0.07l0.03,0.07l0,0l0.03,0.06l0.04,0.07l0.03,0.05l0.01,0.02l0.04,0.07l0,0l0.04,0.06l0.04,0.06l0.03,0.04l0.01,0.02l0.06,0.09l0.03,0.05l0.06,0.08l0.04,0.06l0.02,0.03l0.04,0.06l0.01,0.02l0.01,0.01l0.08,0.1l0.04,0.05l0,0l0.05,0.06l0.01,0.01l0.04,0.05l0.05,0.06l0,0.01l0.04,0.05l0.05,0.06l0.05,0.06l0,0l0.01,0.01l0.08,0.09l0.01,0.02l0.01,0.01l0.09,0.1l0.01,0.01l0.1,0.11l0,0l0.02,0.02l0.1,0.1l0,0l0.01,0.01l0.11,0.1l0.01,0l0,0l0.1,0.09l0,0c1.21,1.06 2.8,1.7 4.54,1.7c1.69,0 3.24,-0.61 4.44,-1.61l0.06,-0.05l0.05,-0.05l0,0l0.06,-0.05l0.04,-0.03l0.02,-0.02l0.09,-0.08l0.01,-0.01l0.01,-0.01l0.08,-0.08l0.04,-0.01l0.08,-0.08l0,0l0.01,-0.01l0.04,-0.04l0.05,-0.06l0,0l0.04,-0.04l0.01,-0.01l0.05,-0.06l0,0l0.05,-0.06l0.05,-0.06l0.09,-0.11l0,0c0.06,-0.07 0.12,-0.15 0.17,-0.22l0.01,-0.01l0.04,-0.06l0,0l0.04,-0.06l0.04,-0.06l0,0l0.04,-0.06l0.04,-0.06l0.04,-0.06l0.04,-0.06l0.01,-0.02l0.06,-0.1l0.01,-0.01l0.07,-0.12l0,-0.01l0.04,-0.07l0.03,-0.06l0.01,-0.01l0.04,-0.07l0.04,-0.07l0.03,-0.07l0,0l0.03,-0.07l0.03,-0.07l0.06,-0.14l0.06,-0.13l0.01,-0.02l0.05,-0.13l0.03,-0.07l0.03,-0.07l0.03,-0.07l0.03,-0.07l0.02,-0.07l0,-0.01c0.03,-0.09 0.06,-0.19 0.08,-0.29l0,0l0.02,-0.08l0.02,-0.07l0,0l0.02,-0.08l0.02,-0.07l0,0l0.02,-0.08c0.02,-0.1 0.04,-0.2 0.06,-0.3c0.06,-0.37 0.09,-0.75 0.09,-1.14c0,-3.81 -3.09,-6.91 -6.91,-6.91s-6.91,3.09 -6.91,6.91c0,0.35 0.03,0.69 0.08,1.02l0.01,0.08l0.03,0.04l0,0zm-0.62,5.73l-25.89,15.23c0.34,1.01 0.52,2.09 0.52,3.21c0,0.57 -0.05,1.12 -0.14,1.67l26.68,16.44c1.71,-1.39 3.89,-2.23 6.26,-2.23c2.43,0 4.65,0.88 6.38,2.33l27,-16.3c-0.12,-0.62 -0.18,-1.26 -0.18,-1.91c0,-0.94 0.13,-1.85 0.37,-2.71l-26.24,-15.62c-0.05,0.05 -0.1,0.11 -0.15,0.16c-1.84,1.84 -4.37,2.97 -7.17,2.97c-2.79,0 -5.33,-1.14 -7.16,-2.97l-0.01,-0.01l-0.01,0.01c-0.09,-0.09 -0.18,-0.18 -0.26,-0.27l0,0zm-39.03,24.39l0,-0.03c0.72,0.43 1.52,0.74 2.37,0.89c0.37,0.06 0.75,0.09 1.14,0.09c3.81,0 6.91,-3.09 6.91,-6.91s-3.09,-6.91 -6.91,-6.91c-3.81,0 -6.91,3.09 -6.91,6.91c0.01,2.55 1.37,4.76 3.4,5.96l0,0zm8.05,50.63l-0.06,-0.03c0.61,-0.51 1.15,-1.13 1.57,-1.86c0.1,-0.18 0.2,-0.37 0.29,-0.55c0.37,-0.85 0.58,-1.78 0.58,-2.76c0,-3.82 -3.09,-6.91 -6.91,-6.91c-3.81,0 -6.91,3.09 -6.91,6.91c0,3.81 3.09,6.91 6.91,6.91c1.73,-0.02 3.31,-0.66 4.53,-1.71l0,0zm45.22,-80.79l0,-0.01l2.95,1.64l-2.95,-1.63l0,0zm32.92,18.33l0,0c-0.56,0.35 -1.07,0.77 -1.51,1.26l-0.06,0.07l0,0l-0.06,0.06l-0.01,0.01l-0.06,0.07l-0.02,0.02l-0.01,0.02l-0.09,0.11l0,0c-0.92,1.17 -1.47,2.66 -1.47,4.26c0,3.81 3.09,6.91 6.91,6.91c3.82,0 6.91,-3.09 6.91,-6.91s-3.09,-6.91 -6.91,-6.91c-1.33,0.01 -2.57,0.38 -3.62,1.03l0,0zm4.48,50.29c3.82,0 6.91,3.09 6.91,6.91s-3.09,6.91 -6.91,6.91c-3.81,0 -6.91,-3.09 -6.91,-6.91s3.1,-6.91 6.91,-6.91l0,0zm-44.21,25.93c3.81,0 6.91,3.09 6.91,6.91c0,3.82 -3.09,6.91 -6.91,6.91s-6.91,-3.09 -6.91,-6.91c0,-3.82 3.09,-6.91 6.91,-6.91l0,0z" class="st0"/>
  </g>
 </g>
</svg>