<svg width="122.88" height="99.09" xmlns="http://www.w3.org/2000/svg">

 <g>
  <title>background</title>
  <rect fill="none" id="canvas_background" height="514" width="514" y="-1" x="-1"/>
 </g>
 <g>
  <title>Layer 1</title>
  <g id="svg_1">
   <path fill="#23d997" id="svg_2" d="m7.87,0l107.12,0c1.96,0 3.73,0.8 5.02,2.08c1.29,1.29 2.08,3.06 2.08,5.02l0,57.54c0,1.96 -0.8,3.73 -2.08,5.02c-1.28,1.28 -3.06,2.08 -5.02,2.08l-107.12,0c-1.96,0 -3.73,-0.8 -5.02,-2.08c-1.29,-1.29 -2.08,-3.06 -2.08,-5.02l0,-57.54c0,-1.96 0.8,-3.73 2.08,-5.02c1.29,-1.28 3.07,-2.08 5.02,-2.08l0,0zm59.2,35.97l-14.17,-9.88l0,19.68l14.17,-9.8l0,0zm-15.55,-18.64l22.86,15.95c0.36,0.22 0.68,0.52 0.93,0.89c1,1.45 0.64,3.45 -0.81,4.45l-22.78,15.75c-0.55,0.45 -1.26,0.72 -2.03,0.72c-1.77,0 -3.21,-1.44 -3.21,-3.21l0,-31.93l0.01,0c0,-0.63 0.19,-1.27 0.58,-1.83c1.01,-1.45 3.01,-1.8 4.45,-0.79l0,0zm10.46,60.06c2.99,0 5.7,1.22 7.66,3.18l0.01,0.01l0.01,-0.01c1.23,1.23 2.17,2.76 2.7,4.46l47.32,0c1.77,0 3.21,1.44 3.21,3.21c0,1.77 -1.44,3.21 -3.21,3.21l-47.33,0c-0.53,1.71 -1.46,3.23 -2.7,4.46c-1.96,1.96 -4.68,3.18 -7.67,3.18c-3,0 -5.71,-1.21 -7.67,-3.18c-1.23,-1.23 -2.17,-2.76 -2.7,-4.46l-48.4,0c-1.77,0 -3.21,-1.44 -3.21,-3.21c0,-1.77 1.44,-3.21 3.21,-3.21l48.4,0c0.53,-1.71 1.46,-3.23 2.7,-4.46c0.07,-0.07 0.14,-0.13 0.21,-0.19c1.94,-1.85 4.57,-2.99 7.46,-2.99l0,0zm3.14,7.71c-0.8,-0.8 -1.91,-1.29 -3.14,-1.29c-1.17,0 -2.23,0.44 -3.02,1.17l-0.12,0.13c-0.8,0.8 -1.3,1.91 -1.3,3.14c0,1.22 0.5,2.33 1.3,3.14c0.8,0.8 1.91,1.3 3.14,1.3c1.22,0 2.33,-0.5 3.14,-1.3c0.75,-0.75 1.23,-1.77 1.29,-2.9c-0.01,-0.08 -0.01,-0.15 -0.01,-0.23c0,-0.08 0,-0.16 0.01,-0.23c-0.06,-1.15 -0.54,-2.17 -1.29,-2.93l0,0l0,0zm49.87,-78.68l-107.12,0c-0.18,0 -0.35,0.08 -0.48,0.2c-0.12,0.12 -0.2,0.29 -0.2,0.48l0,57.54c0,0.18 0.08,0.35 0.2,0.48c0.12,0.12 0.29,0.2 0.48,0.2l107.12,0c0.18,0 0.35,-0.08 0.48,-0.2c0.12,-0.12 0.2,-0.29 0.2,-0.48l0,-57.54c0,-0.18 -0.08,-0.35 -0.2,-0.48c-0.12,-0.12 -0.29,-0.2 -0.48,-0.2l0,0z"/>
  </g>
 </g>
</svg>