<svg width="108.1" height="122.88" xmlns="http://www.w3.org/2000/svg">
 <style type="text/css">
  <![CDATA[
	.st0{fill-rule:evenodd;clip-rule:evenodd;}
]]>
 </style>

 <g>
  <title>background</title>
  <rect fill="none" id="canvas_background" height="514" width="514" y="-1" x="-1"/>
 </g>
 <g>
  <title>Layer 1</title>
  <g id="svg_1">
   <path fill="#23d997" id="svg_2" d="m17.61,47.71l52.57,0c4.88,0 8.86,3.99 8.86,8.86l0,38.52c0,4.87 -3.99,8.86 -8.86,8.86l-16.24,0l11.79,18.92l-10.98,0l-12.86,-17.29l-12.99,17.29l-11.14,0l11.72,-18.92l-11.87,0c-4.87,0 -8.86,-3.99 -8.86,-8.86l0,-38.52c0,-4.87 3.98,-8.86 8.86,-8.86l0,0zm0.22,-38.49c4.92,0 9.38,2 12.61,5.22c3.23,3.23 5.22,7.69 5.22,12.61c0,4.92 -2,9.38 -5.22,12.61c-3.23,3.23 -7.69,5.22 -12.61,5.22s-9.38,-2 -12.61,-5.22c-3.22,-3.22 -5.22,-7.68 -5.22,-12.6c0,-4.92 2,-9.38 5.22,-12.61s7.69,-5.23 12.61,-5.23l0,0zm7.1,10.74c-1.82,-1.82 -4.33,-2.94 -7.1,-2.94c-2.77,0 -5.28,1.12 -7.1,2.94c-1.82,1.82 -2.94,4.33 -2.94,7.1c0,2.77 1.12,5.28 2.94,7.1s4.33,2.94 7.1,2.94c2.77,0 5.28,-1.12 7.1,-2.94s2.94,-4.33 2.94,-7.1c0.01,-2.77 -1.12,-5.29 -2.94,-7.1l0,0zm35.69,-19.96c6.2,0 11.81,2.51 15.87,6.57c4.06,4.06 6.57,9.67 6.57,15.87c0,6.2 -2.51,11.81 -6.57,15.87c-4.06,4.06 -9.67,6.57 -15.87,6.57s-11.81,-2.51 -15.87,-6.57c-4.06,-4.06 -6.57,-9.67 -6.57,-15.87c0,-6.2 2.51,-11.81 6.57,-15.87s9.67,-6.57 15.87,-6.57l0,0zm10.26,12.19c-2.62,-2.62 -6.25,-4.25 -10.26,-4.25s-7.63,1.62 -10.26,4.25c-2.62,2.62 -4.25,6.25 -4.25,10.26s1.62,7.63 4.25,10.26c2.62,2.62 6.25,4.25 10.26,4.25s7.63,-1.62 10.26,-4.25s4.25,-6.25 4.25,-10.26c0,-4.01 -1.63,-7.64 -4.25,-10.26l0,0zm13.19,77.78l0,-28.45l24.02,-14.16l0,57.15l-24.02,-14.54l0,0z" class="st0"/>
  </g>
 </g>
</svg>